#!OML:ASF X:\für Bonn\!DataBase\2005_08_12_Daniel\c3d\Daniel.ASF
:FULLY-SPECIFIED
:DEGREES
1
root -31.3035 17.0179 -27.181 -3.56358 47.9904 -715.397
lowerback 40.6123 -2.93642 3.32937
upperback 11.3073 -1.55389 -0.915759
thorax -7.02903 -0.313635 -2.12135
lowerneck -0.111884 1.41488 -4.94718
upperneck -2.40985 1.80645 -4.84002
head -0.714935 1.00721 -0.678342
rclavicle 1.47101e-014 -2.0276e-014
rhumerus -24.3526 -5.76298 -89.2544
rradius 23.5604
rwrist 6.81784
rhand -19.073 18.4088
rfingers 7.12502
rthumb 7.23472 -11.4475
lclavicle 1.47101e-014 -2.0276e-014
lhumerus -11.5425 16.1177 91.6409
lradius 30.8607
lwrist -19.3803
lhand -9.53222 -10.6046
lfingers 7.12502
lthumb 16.4341 18.7193
rfemur -13.2437 14.6242 23.1992
rtibia 48.7501
rfoot -26.0343 2.76513
rtoes -9.12769
lfemur -27.1686 4.45779 -19.8769
ltibia 71.9549
lfoot -15.8922 -3.83877
ltoes -14.635
2
root -31.267 17.0027 -27.1591 -3.61399 47.8865 -715.338
lowerback 40.71 -2.94623 3.30748
upperback 11.3438 -1.57376 -0.979002
thorax -7.02118 -0.318903 -2.1684
lowerneck -0.120256 1.41707 -4.87179
upperneck -2.6142 1.79883 -4.89128
head -0.77581 1.01059 -0.707929
rclavicle -1.39149e-014 -4.37326e-015
rhumerus -24.35 -5.62118 -89.3078
rradius 23.7322
rwrist 6.68764
rhand -19.1884 18.7489
rfingers 7.12502
rthumb 7.12331 -11.1112
lclavicle -1.39149e-014 -4.37326e-015
lhumerus -11.5 16.3277 91.4883
lradius 30.7991
lwrist -19.5434
lhand -9.73535 -10.4989
lfingers 7.12502
lthumb 16.2385 18.8411
rfemur -13.1226 14.6518 23.1996
rtibia 49.0025
rfoot -26.2985 2.82555
rtoes -9.24785
lfemur -27.5617 4.28246 -20.037
ltibia 71.2486
lfoot -16.3485 -3.31467
ltoes -14.1907
3
root -31.2287 16.9837 -27.1377 -3.69402 47.7893 -715.303
lowerback 40.8166 -2.95608 3.30127
upperback 11.3688 -1.58626 -1.02909
thorax -7.02802 -0.32145 -2.21229
lowerneck -0.104641 1.41853 -4.79606
upperneck -2.79908 1.78915 -4.96548
head -0.834672 1.01285 -0.744815
rclavicle 1.78906e-014 7.55382e-015
rhumerus -24.4013 -5.41555 -89.3565
rradius 23.9389
rwrist 6.51679
rhand -19.3241 19.105
rfingers 7.12502
rthumb 6.99229 -10.7595
lclavicle 1.78906e-014 7.55382e-015
lhumerus -11.5026 16.3571 91.334
lradius 30.7809
lwrist -19.5166
lhand -9.93487 -10.3845
lfingers 7.12502
lthumb 16.0464 18.9711
rfemur -12.9782 14.6386 23.2108
rtibia 49.2558
rfoot -26.5585 2.92143
rtoes -9.28156
lfemur -27.908 4.11093 -20.1781
ltibia 70.466
lfoot -16.728 -2.76539
ltoes -13.6912
4
root -31.1881 16.9657 -27.114 -3.75333 47.6771 -715.241
lowerback 40.9128 -2.95083 3.26181
upperback 11.3937 -1.59504 -1.08489
thorax -7.03138 -0.322632 -2.24677
lowerneck -0.0818327 1.42551 -4.72718
upperneck -2.9962 1.78582 -5.02161
head -0.898905 1.01865 -0.775397
rclavicle -4.49253e-014 2.18663e-014
rhumerus -24.4312 -5.19696 -89.4101
rradius 24.1573
rwrist 6.27132
rhand -19.4318 19.3771
rfingers 7.12502
rthumb 6.88835 -10.4908
lclavicle -4.49253e-014 2.18663e-014
lhumerus -11.5645 16.3595 91.157
lradius 30.83
lwrist -19.4494
lhand -10.1338 -10.2675
lfingers 7.12502
lthumb 15.8548 19.1034
rfemur -12.8249 14.6298 23.1992
rtibia 49.4969
rfoot -26.8291 3.03802
rtoes -9.30005
lfemur -28.2078 3.94719 -20.3335
ltibia 69.6078
lfoot -17.0955 -2.13003
ltoes -13.1867
5
root -31.1462 16.9487 -27.0908 -3.8021 47.5714 -715.178
lowerback 40.9809 -2.95428 3.23888
upperback 11.4268 -1.61035 -1.15228
thorax -7.01823 -0.326056 -2.29991
lowerneck -0.0994719 1.42648 -4.64457
upperneck -3.15909 1.7792 -5.0795
head -0.945683 1.02086 -0.808121
rclavicle 3.73715e-014 -2.50469e-014
rhumerus -24.4762 -5.03332 -89.4582
rradius 24.3945
rwrist 6.14278
rhand -19.5148 19.6757
rfingers 7.12502
rthumb 6.80817 -10.1949
lclavicle 3.73715e-014 -2.50469e-014
lhumerus -11.586 16.4093 90.9879
lradius 30.8532
lwrist -19.4172
lhand -10.2753 -10.1845
lfingers 7.12502
lthumb 15.7185 19.1972
rfemur -12.6626 14.6206 23.1763
rtibia 49.7183
rfoot -27.1027 3.14362
rtoes -9.4368
lfemur -28.5181 3.80253 -20.4948
ltibia 68.7138
lfoot -17.4211 -1.51283
ltoes -13.0354
6
root -31.1041 16.935 -27.0665 -3.88172 47.4666 -715.116
lowerback 41.089 -2.95001 3.21063
upperback 11.4479 -1.61681 -1.22162
thorax -7.02983 -0.325574 -2.35539
lowerneck -0.0847951 1.42335 -4.54313
upperneck -3.32045 1.76488 -5.1356
head -0.997447 1.01925 -0.843752
rclavicle -3.29983e-014 5.96354e-015
rhumerus -24.5626 -4.81155 -89.5216
rradius 24.6882
rwrist 5.86584
rhand -19.6033 19.9005
rfingers 7.12502
rthumb 6.72276 -9.97279
lclavicle -3.29983e-014 5.96354e-015
lhumerus -11.6645 16.3088 90.7895
lradius 30.8953
lwrist -19.2667
lhand -10.4636 -10.0859
lfingers 7.12502
lthumb 15.5372 19.3099
rfemur -12.4527 14.6001 23.1594
rtibia 49.9113
rfoot -27.3164 3.28644
rtoes -9.39363
lfemur -28.8019 3.64025 -20.6415
ltibia 67.7885
lfoot -17.7071 -1.07314
ltoes -13.0785
7
root -31.0619 16.9232 -27.0412 -3.93263 47.377 -715.055
lowerback 41.1581 -2.94281 3.15065
upperback 11.4758 -1.63206 -1.27142
thorax -7.02124 -0.330154 -2.37074
lowerneck -0.127491 1.436 -4.46114
upperneck -3.47624 1.7758 -5.19918
head -1.03786 1.02968 -0.878184
rclavicle -4.13472e-014 -1.03368e-014
rhumerus -24.6146 -4.57001 -89.567
rradius 24.9713
rwrist 5.61607
rhand -19.6947 20.0973
rfingers 7.12502
rthumb 6.63451 -9.77876
lclavicle -4.13472e-014 -1.03368e-014
lhumerus -11.7247 16.3157 90.6151
lradius 30.9441
lwrist -19.1549
lhand -10.6137 -10.049
lfingers 7.12502
lthumb 15.3926 19.358
rfemur -12.261 14.5589 23.1393
rtibia 50.0869
rfoot -27.4947 3.41522
rtoes -9.41092
lfemur -29.1107 3.46187 -20.7803
ltibia 66.8307
lfoot -18.0072 -0.835273
ltoes -13.389
8
root -31.0207 16.9117 -27.0154 -3.98788 47.2839 -714.974
lowerback 41.2554 -2.92163 3.0904
upperback 11.4993 -1.63155 -1.34563
thorax -7.02615 -0.326448 -2.41796
lowerneck -0.146884 1.41925 -4.35116
upperneck -3.61988 1.74669 -5.25197
head -1.07856 1.01934 -0.913742
rclavicle -4.37326e-014 3.69739e-014
rhumerus -24.622 -4.56334 -89.6
rradius 25.1404
rwrist 5.62803
rhand -19.879 20.3398
rfingers 7.12502
rthumb 6.45664 -9.54178
lclavicle -4.37326e-014 3.69739e-014
lhumerus -11.7957 16.2183 90.4132
lradius 30.9908
lwrist -18.9995
lhand -10.8162 -9.95539
lfingers 7.12502
lthumb 15.1975 19.4665
rfemur -12.0544 14.5383 23.1141
rtibia 50.2644
rfoot -27.6589 3.51232
rtoes -9.49662
lfemur -29.3747 3.25282 -20.9
ltibia 65.8045
lfoot -18.2542 -0.790745
ltoes -13.524
9
root -30.9779 16.9023 -26.9886 -4.07555 47.1886 -714.935
lowerback 41.3406 -2.90634 3.04225
upperback 11.5265 -1.63193 -1.39904
thorax -7.02265 -0.323654 -2.44906
lowerneck -0.202949 1.42136 -4.30143
upperneck -3.75419 1.74624 -5.2717
head -1.11069 1.02285 -0.928927
rclavicle -2.0276e-014 -1.59028e-015
rhumerus -24.6052 -4.61227 -89.5865
rradius 25.2779
rwrist 5.69916
rhand -20.079 20.5416
rfingers 7.12502
rthumb 6.2635 -9.34581
lclavicle -2.0276e-014 -1.59028e-015
lhumerus -11.8722 16.1703 90.2268
lradius 31.0577
lwrist -18.8298
lhand -10.9739 -9.89073
lfingers 7.12502
lthumb 15.0456 19.5426
rfemur -11.8321 14.4897 23.1168
rtibia 50.4383
rfoot -27.8469 3.62449
rtoes -9.55713
lfemur -29.6293 3.02385 -20.9684
ltibia 64.7258
lfoot -18.433 -0.895152
ltoes -13.4131
